<svg width="50" height="50" viewBox="0 0 50 50" fill="none" xmlns="http://www.w3.org/2000/svg">
<path fill-rule="evenodd" clip-rule="evenodd" d="M9.99984 40C13.7665 38.9222 21.2332 40.4778 24.9998 37.7778C28.7665 40.4778 36.2332 38.9222 39.9998 40C39.9998 40 41.8332 40.6 43.3332 42.2222C42.5776 43.3 41.4998 43.3222 39.9998 42.7778C36.2332 41.7 28.7665 43.2889 24.9998 41.6667C21.2332 43.2889 13.7665 41.7 9.99984 42.7778C8.49539 43.3222 7.41873 43.3 6.6665 42.2222C8.17095 40.0667 9.99984 40 9.99984 40Z" fill="white" stroke="black" stroke-width="1.5" stroke-linejoin="round"/>
<path fill-rule="evenodd" clip-rule="evenodd" d="M16.6665 35.5555C19.4442 38.3333 30.5554 38.3333 33.3331 35.5555C33.8887 33.8888 33.3331 33.3333 33.3331 33.3333C33.3331 30.5555 30.5554 28.8888 30.5554 28.8888C36.6665 27.2222 37.222 16.1111 24.9998 11.6666C12.7776 16.1111 13.3331 27.2222 19.4442 28.8888C19.4442 28.8888 16.6665 30.5555 16.6665 33.3333C16.6665 33.3333 16.1109 33.8888 16.6665 35.5555Z" fill="white" stroke="black" stroke-width="1.5" stroke-linejoin="round"/>
<path fill-rule="evenodd" clip-rule="evenodd" d="M27.7777 8.88886C27.7777 9.62557 27.4851 10.3321 26.9641 10.853C26.4432 11.374 25.7367 11.6666 24.9999 11.6666C24.2632 11.6666 23.5567 11.374 23.0358 10.853C22.5148 10.3321 22.2222 9.62557 22.2222 8.88886C22.2222 8.15215 22.5148 7.44561 23.0358 6.92468C23.5567 6.40374 24.2632 6.11108 24.9999 6.11108C25.7367 6.11108 26.4432 6.40374 26.9641 6.92468C27.4851 7.44561 27.7777 8.15215 27.7777 8.88886Z" fill="white" stroke="black" stroke-width="1.5" stroke-linejoin="round"/>
<path d="M19.4443 28.8888H30.5554M16.6665 33.3333H33.3332M24.9998 17.2222V22.7777M22.2221 19.9999H27.7776" stroke="black" stroke-width="1.5" stroke-linecap="round"/>
</svg>
