<svg width="50" height="50" viewBox="0 0 50 50" fill="none" xmlns="http://www.w3.org/2000/svg">
<path fill-rule="evenodd" clip-rule="evenodd" d="M24.4445 11.1111C36.1112 12.2222 42.7779 20 42.2223 43.3333H16.6667C16.6667 33.3333 27.7779 36.1111 25.5556 20" fill="black"/>
<path d="M24.4445 11.1111C36.1112 12.2222 42.7779 20 42.2223 43.3333H16.6667C16.6667 33.3333 27.7779 36.1111 25.5556 20" stroke="black" stroke-width="1.5" stroke-linecap="round" stroke-linejoin="round"/>
<path fill-rule="evenodd" clip-rule="evenodd" d="M26.6667 20C27.089 23.2333 20.5001 28.1889 17.7779 30C14.4445 32.2222 14.6445 34.8222 12.2223 34.4444C11.0645 33.4 13.789 31.0667 12.2223 31.1111C11.1112 31.1111 12.4334 32.4778 11.1112 33.3333C10.0001 33.3333 6.66342 34.4444 6.66675 28.8889C6.66675 26.6667 13.3334 15.5555 13.3334 15.5555C13.3334 15.5555 15.4334 13.4444 15.5556 11.6667C14.7445 10.5622 15.0001 9.44444 15.0001 8.33333C16.1112 7.22222 18.3334 11.1111 18.3334 11.1111H20.5556C20.5556 11.1111 21.4223 8.89777 23.3334 7.77777C24.4445 7.77777 24.4445 11.1111 24.4445 11.1111" fill="black"/>
<path d="M26.6667 20C27.089 23.2333 20.5001 28.1889 17.7779 30C14.4445 32.2222 14.6445 34.8222 12.2223 34.4444C11.0645 33.4 13.789 31.0667 12.2223 31.1111C11.1112 31.1111 12.4334 32.4778 11.1112 33.3333C10.0001 33.3333 6.66342 34.4444 6.66675 28.8889C6.66675 26.6667 13.3334 15.5555 13.3334 15.5555C13.3334 15.5555 15.4334 13.4444 15.5556 11.6667C14.7445 10.5622 15.0001 9.44444 15.0001 8.33333C16.1112 7.22222 18.3334 11.1111 18.3334 11.1111H20.5556C20.5556 11.1111 21.4223 8.89777 23.3334 7.77777C24.4445 7.77777 24.4445 11.1111 24.4445 11.1111" stroke="black" stroke-width="1.5" stroke-linecap="round" stroke-linejoin="round"/>
<path fill-rule="evenodd" clip-rule="evenodd" d="M10.5557 28.3333C10.5557 28.4807 10.4972 28.622 10.393 28.7262C10.2888 28.8304 10.1475 28.8889 10.0001 28.8889C9.85279 28.8889 9.71148 28.8304 9.6073 28.7262C9.50311 28.622 9.44458 28.4807 9.44458 28.3333C9.44458 28.186 9.50311 28.0447 9.6073 27.9405C9.71148 27.8363 9.85279 27.7778 10.0001 27.7778C10.1475 27.7778 10.2888 27.8363 10.393 27.9405C10.4972 28.0447 10.5557 28.186 10.5557 28.3333ZM16.5924 17.5C16.4829 17.6906 16.3618 17.8723 16.2361 18.0347C16.1103 18.1971 15.9824 18.3369 15.8597 18.4461C15.7371 18.5553 15.622 18.6318 15.5212 18.6711C15.4204 18.7104 15.3358 18.7118 15.2724 18.6752C15.2089 18.6385 15.1678 18.5646 15.1515 18.4577C15.1351 18.3507 15.1438 18.2128 15.1771 18.052C15.2103 17.8911 15.2675 17.7104 15.3452 17.5204C15.423 17.3303 15.5198 17.1346 15.6301 16.9445C15.7396 16.7539 15.8607 16.5722 15.9864 16.4098C16.1122 16.2474 16.2401 16.1076 16.3627 15.9984C16.4854 15.8891 16.6005 15.8127 16.7013 15.7733C16.8021 15.734 16.8867 15.7327 16.9501 15.7693C17.0136 15.8059 17.0546 15.8798 17.071 15.9868C17.0874 16.0938 17.0787 16.2316 17.0454 16.3925C17.0122 16.5534 16.955 16.734 16.8773 16.9241C16.7995 17.1142 16.7027 17.3099 16.5924 17.5Z" fill="#ECECEC" stroke="#ECECEC" stroke-width="1.5" stroke-linecap="round" stroke-linejoin="round"/>
<path fill-rule="evenodd" clip-rule="evenodd" d="M27.2778 11.5555L26.7778 13.1667L27.3334 13.3333C30.8334 14.4444 33.6112 16.1 36.1112 20.8333C38.6112 25.5667 39.7223 32.2889 39.1667 43.3333L39.1112 43.8889H41.6112L41.6667 43.3333C42.2223 32.1555 40.6889 24.6111 38.0556 19.6222C35.4223 14.6333 31.6223 12.2444 27.8445 11.6667L27.2778 11.5555Z" fill="#ECECEC"/>
</svg>
