<svg width="50" height="50" viewBox="0 0 50 50" fill="none" xmlns="http://www.w3.org/2000/svg">
<path d="M6.66664 16.3889C8.35418 16.3889 9.7222 15.0209 9.7222 13.3333C9.7222 11.6458 8.35418 10.2778 6.66664 10.2778C4.9791 10.2778 3.61108 11.6458 3.61108 13.3333C3.61108 15.0209 4.9791 16.3889 6.66664 16.3889Z" fill="black"/>
<path d="M15.5556 13.0555C17.2431 13.0555 18.6111 11.6875 18.6111 9.99995C18.6111 8.31242 17.2431 6.9444 15.5556 6.9444C13.868 6.9444 12.5 8.31242 12.5 9.99995C12.5 11.6875 13.868 13.0555 15.5556 13.0555Z" fill="black"/>
<path d="M24.9999 11.9444C26.6874 11.9444 28.0554 10.5764 28.0554 8.88887C28.0554 7.20133 26.6874 5.83331 24.9999 5.83331C23.3124 5.83331 21.9443 7.20133 21.9443 8.88887C21.9443 10.5764 23.3124 11.9444 24.9999 11.9444Z" fill="black"/>
<path d="M34.4445 13.0555C36.132 13.0555 37.5 11.6875 37.5 9.99995C37.5 8.31242 36.132 6.9444 34.4445 6.9444C32.7569 6.9444 31.3889 8.31242 31.3889 9.99995C31.3889 11.6875 32.7569 13.0555 34.4445 13.0555Z" fill="black"/>
<path d="M43.3334 16.3889C45.0209 16.3889 46.3889 15.0209 46.3889 13.3333C46.3889 11.6458 45.0209 10.2778 43.3334 10.2778C41.6459 10.2778 40.2778 11.6458 40.2778 13.3333C40.2778 15.0209 41.6459 16.3889 43.3334 16.3889Z" fill="black"/>
<path fill-rule="evenodd" clip-rule="evenodd" d="M9.99995 28.8889C19.4444 27.2222 33.3333 27.2222 39.9999 28.8889L42.7777 15L34.4444 27.7778L34.1111 12.1111L28.3333 27.2222L24.9999 11.1111L21.6666 27.2222L15.8888 12.1111L15.5555 27.7778L7.22217 15L9.99995 28.8889Z" fill="black" stroke="black" stroke-width="1.5" stroke-linejoin="round"/>
<path fill-rule="evenodd" clip-rule="evenodd" d="M10 28.8889C10 31.1111 11.6667 31.1111 12.7778 33.3333C13.8889 35 13.8889 34.4444 13.3333 37.2222C11.6667 38.3333 11.6667 40 11.6667 40C10 41.6666 12.2222 42.7777 12.2222 42.7777C19.4444 43.8889 30.5556 43.8889 37.7778 42.7777C37.7778 42.7777 39.4444 41.6666 37.7778 40C37.7778 40 38.3333 38.3333 36.6667 37.2222C36.1111 34.4444 36.1111 35 37.2222 33.3333C38.3333 31.1111 40 31.1111 40 28.8889C30.5556 27.2222 19.4444 27.2222 10 28.8889Z" fill="black" stroke="black" stroke-width="1.5" stroke-linejoin="round"/>
<path d="M12.2222 42.7778C20.4975 45.6566 29.5024 45.6566 37.7777 42.7778" stroke="black" stroke-width="1.5" stroke-linejoin="round"/>
<path d="M12.2223 32.2222C20.4976 29.3433 29.5026 29.3433 37.7779 32.2222M13.889 35H36.1112M12.7779 38.3333C20.7142 40.9607 29.286 40.9607 37.2223 38.3333M11.6667 41.6666C20.2778 44.8095 29.7223 44.8095 38.3334 41.6666" stroke="#ECECEC" stroke-width="1.5" stroke-linecap="round" stroke-linejoin="round"/>
</svg>
