<svg width="50" height="50" viewBox="0 0 50 50" fill="none" xmlns="http://www.w3.org/2000/svg">
<path d="M24.9999 12.9222V6.66669M22.2222 8.88891H27.7777" stroke="black" stroke-width="1.5" stroke-linecap="round"/>
<path fill-rule="evenodd" clip-rule="evenodd" d="M25.0001 27.7778C25.0001 27.7778 30.0001 19.4445 28.3335 16.1112C28.3335 16.1112 27.2224 13.3334 25.0001 13.3334C22.7779 13.3334 21.6668 16.1112 21.6668 16.1112C20.0001 19.4445 25.0001 27.7778 25.0001 27.7778Z" fill="white" stroke="black" stroke-width="1.5"/>
<path fill-rule="evenodd" clip-rule="evenodd" d="M12.7778 41.1111C18.889 45 30.0001 45 36.1112 41.1111V33.3333C36.1112 33.3333 46.1112 28.3333 42.7778 21.6667C38.3334 14.4445 27.7778 17.7778 25.0001 26.1111C21.1112 17.7778 10.5556 14.4445 7.22229 21.6667C3.88895 28.3333 12.7778 32.7778 12.7778 32.7778V41.1111Z" fill="white"/>
<path d="M25.0001 26.1111C27.7778 17.7778 38.3334 14.4445 42.7778 21.6667C46.1112 28.3333 36.1112 33.3333 36.1112 33.3333V41.1111C30.0001 45 18.889 45 12.7778 41.1111V32.7778C12.7778 32.7778 3.88895 28.3333 7.22229 21.6667C10.5556 14.4445 21.1112 17.7778 25.0001 26.1111ZM25.0001 26.1111V30" stroke="black" stroke-width="1.5" stroke-linecap="round" stroke-linejoin="round"/>
<path d="M12.7778 33.3334C18.8889 30 30.0001 30 36.1112 33.3334M12.7778 37.2223C18.8889 33.8889 30.0001 33.8889 36.1112 37.2223M12.7778 41.1112C18.8889 37.7778 30.0001 37.7778 36.1112 41.1112" stroke="black" stroke-width="1.5" stroke-linecap="round" stroke-linejoin="round"/>
</svg>
