<svg width="50" height="50" viewBox="0 0 50 50" fill="none" xmlns="http://www.w3.org/2000/svg">
<path fill-rule="evenodd" clip-rule="evenodd" d="M8.88878 13.3333C8.88878 13.9227 8.65465 14.4879 8.23791 14.9047C7.82116 15.3214 7.25593 15.5555 6.66656 15.5555C6.07719 15.5555 5.51196 15.3214 5.09521 14.9047C4.67846 14.4879 4.44434 13.9227 4.44434 13.3333C4.44434 12.7439 4.67846 12.1787 5.09521 11.762C5.51196 11.3452 6.07719 11.1111 6.66656 11.1111C7.25593 11.1111 7.82116 11.3452 8.23791 11.762C8.65465 12.1787 8.88878 12.7439 8.88878 13.3333ZM27.2221 8.33331C27.2221 8.92268 26.988 9.48791 26.5712 9.90465C26.1545 10.3214 25.5893 10.5555 24.9999 10.5555C24.4105 10.5555 23.8453 10.3214 23.4285 9.90465C23.0118 9.48791 22.7777 8.92268 22.7777 8.33331C22.7777 7.74394 23.0118 7.17871 23.4285 6.76196C23.8453 6.34521 24.4105 6.11108 24.9999 6.11108C25.5893 6.11108 26.1545 6.34521 26.5712 6.76196C26.988 7.17871 27.2221 7.74394 27.2221 8.33331ZM45.5554 13.3333C45.5554 13.9227 45.3213 14.4879 44.9046 14.9047C44.4878 15.3214 43.9226 15.5555 43.3332 15.5555C42.7439 15.5555 42.1786 15.3214 41.7619 14.9047C41.3451 14.4879 41.111 13.9227 41.111 13.3333C41.111 12.7439 41.3451 12.1787 41.7619 11.762C42.1786 11.3452 42.7439 11.1111 43.3332 11.1111C43.9226 11.1111 44.4878 11.3452 44.9046 11.762C45.3213 12.1787 45.5554 12.7439 45.5554 13.3333ZM17.7777 9.44442C17.7777 10.0338 17.5435 10.599 17.1268 11.0158C16.71 11.4325 16.1448 11.6666 15.5554 11.6666C14.9661 11.6666 14.4008 11.4325 13.9841 11.0158C13.5674 10.599 13.3332 10.0338 13.3332 9.44442C13.3332 8.85505 13.5674 8.28982 13.9841 7.87307C14.4008 7.45632 14.9661 7.2222 15.5554 7.2222C16.1448 7.2222 16.71 7.45632 17.1268 7.87307C17.5435 8.28982 17.7777 8.85505 17.7777 9.44442ZM36.6666 9.99997C36.6666 10.5893 36.4324 11.1546 36.0157 11.5713C35.5989 11.9881 35.0337 12.2222 34.4443 12.2222C33.855 12.2222 33.2897 11.9881 32.873 11.5713C32.4562 11.1546 32.2221 10.5893 32.2221 9.99997C32.2221 9.4106 32.4562 8.84537 32.873 8.42862C33.2897 8.01188 33.855 7.77775 34.4443 7.77775C35.0337 7.77775 35.5989 8.01188 36.0157 8.42862C36.4324 8.84537 36.6666 9.4106 36.6666 9.99997Z" fill="white" stroke="black" stroke-width="1.5" stroke-linecap="round" stroke-linejoin="round"/>
<path fill-rule="evenodd" clip-rule="evenodd" d="M9.99981 28.8889C19.4443 27.2222 33.3331 27.2222 39.9998 28.8889L42.222 15.5555L34.4443 27.7778V12.2222L28.3331 27.2222L24.9998 10.5555L21.6665 27.2222L15.5554 11.6667V27.7778L7.77759 15.5555L9.99981 28.8889Z" fill="white" stroke="black" stroke-width="1.5" stroke-linejoin="round"/>
<path fill-rule="evenodd" clip-rule="evenodd" d="M10 28.8889C10 31.1111 11.6667 31.1111 12.7778 33.3333C13.8889 35 13.8889 34.4444 13.3333 37.2222C11.6667 38.3333 11.6667 40 11.6667 40C10 41.6666 12.2222 42.7777 12.2222 42.7777C19.4444 43.8889 30.5556 43.8889 37.7778 42.7777C37.7778 42.7777 39.4444 41.6666 37.7778 40C37.7778 40 38.3333 38.3333 36.6667 37.2222C36.1111 34.4444 36.1111 35 37.2222 33.3333C38.3333 31.1111 40 31.1111 40 28.8889C30.5556 27.2222 19.4444 27.2222 10 28.8889Z" fill="white" stroke="black" stroke-width="1.5" stroke-linejoin="round"/>
<path d="M12.7776 33.3333C16.6665 32.2222 33.3331 32.2222 37.222 33.3333M13.3331 37.2222C19.9998 36.1111 29.9998 36.1111 36.6665 37.2222" stroke="black" stroke-width="1.5" stroke-linecap="round" stroke-linejoin="round"/>
</svg>
